<?xml version="1.0" encoding="utf-8"?>
<!-- Svg Vector Icons : http://www.onlinewebfonts.com/icon -->
<!DOCTYPE svg PUBLIC "-//W3C//DTD SVG 1.1//EN" "http://www.w3.org/Graphics/SVG/1.1/DTD/svg11.dtd">
<svg version="1.1" xmlns="http://www.w3.org/2000/svg" xmlns:xlink="http://www.w3.org/1999/xlink" x="0px" y="0px" viewBox="0 0 256 256" enable-background="new 0 0 256 256" xml:space="preserve">
<metadata> Svg Vector Icons : http://www.onlinewebfonts.com/icon </metadata>
<g><g><g><path fill="#000000" d="M117.1,12.7c-35.7,3.4-67.9,22.5-87.5,51.8c-10.3,15.3-16.3,31.3-19,50.3c-0.9,6.6-0.8,25.2,0.2,31.8c1.4,9.1,3.8,14.6,7.3,16.9c1.5,0.9,1.9,1.7,3.5,6.2c7.9,21.7,23.7,41.8,43.6,55c44.4,29.6,104.2,23.8,142.2-13.9c7.2-7.1,14-16,18.9-24.5c0.7-1.2,2.3-3,3.7-4c7.2-5.5,12.5-18.4,14.8-36.2c5.1-38.6-7.5-74.9-34.9-101.2c-17.8-17-40.1-27.9-65.5-31.7C138.4,12.5,123.3,12.1,117.1,12.7z M122.9,32.1c12.5,4.9,13.2,5.3,13.7,8.2c0.4,2-1.5,4.5-3.6,5.1c-1.5,0.4-3-0.1-13.9-4.4c-8.4-3.3-12.5-5.2-13.2-6c-2.5-2.8-0.4-7.7,3.2-7.7C110.1,27.3,115.9,29.3,122.9,32.1z M183.4,46.3c0.8,0.9,1.1,1.8,1.1,3.4v2.2l-9,9.1c-4.9,5-9.7,9.4-10.6,9.8c-1,0.5-2.1,0.7-3,0.5c-2-0.4-3.8-2.7-3.8-4.9c0-1.6,0.7-2.4,10.1-11.8l10.1-10.1l2.1,0.3C181.7,45,182.6,45.5,183.4,46.3z M118,58.6c0.8,0.4,1.6,1.1,1.9,1.6c0.6,1.2,0.6,3.6,0,4.8c-0.5,1-19.7,16.2-21.4,17c-1.6,0.8-4.3,0.1-5.5-1.3c-1.1-1.5-1.2-4.2-0.2-5.6c0.7-1,18.8-15.5,20.7-16.5C114.9,57.7,116.4,57.7,118,58.6z M66,75.5c3.2,1.4,4.1,4.8,1.8,7.3c-0.9,1-4.7,2.8-13.1,6.4c-12.9,5.5-14,5.7-16.1,3.3c-1.6-1.8-1.5-4.8,0.1-6.4c1-0.9,24.2-11.3,25.3-11.3C64.2,74.8,65.1,75.1,66,75.5z M181.8,89c0.6,0.3,5.2,4.5,10.3,9.5c10.1,9.7,10.6,10.5,9.1,13.4c-0.9,1.8-2.1,2.4-4.5,2.4c-1.8,0-2.2-0.3-11.6-9.3c-5.6-5.4-9.9-9.8-10.2-10.6C173.6,90.5,178,87,181.8,89z M133.2,94.6c13.1,2,24.2,11,28.6,23.3c6.8,18.9-2.7,39.5-21.6,46.3c-18.8,6.9-40-3.2-46.4-22.1c-4.5-13.3-1.2-27.3,8.7-37.2C110.7,96.6,122,92.9,133.2,94.6z M47.9,112c1.5,0.8,17.3,20.6,17.7,22.1c0.7,3.2-2.8,6.3-6,5.4c-1.2-0.4-3.2-2.4-9.5-10.1c-4.3-5.3-8.2-10.2-8.6-10.9c-1.1-2.1-0.9-4,0.7-5.6C43.6,111.4,46.1,111.1,47.9,112z M231.3,123.5c1.7,1.7,2,3.3,1.1,5.1c-1,2-18.5,19.2-20.1,19.7c-3.2,1-6.7-2.1-6.1-5.4c0.2-1.1,2.5-3.7,10.1-11.3c9.3-9.2,9.9-9.7,11.6-9.7C229.4,121.9,230.1,122.2,231.3,123.5z M56.6,155.3c4.1,1.8,7.2,7.1,11.7,20c5,14,7.2,18.6,11,22.6c2.9,3,6.1,4.5,9.7,4.5c5.5,0,8.3-2.4,14.8-12.2c8.1-12.2,13.3-16,22.4-16c7.4,0,12.1,1.8,15.9,6.1c6.2,7.1,7.7,8.3,10.3,9.1c2.9,0.8,8.9,1,11.3,0.3c2.5-0.8,6-3.3,8.3-6.2c1.2-1.5,3.8-6,5.9-9.9c6-11.4,7.3-13.4,10.6-15.3c1.6-0.9,2.7-1.2,4.8-1.2c6.3,0,9.3,3.3,12.8,13.9c2.7,8.1,5,12,8.7,14.1c0.7,0.4,0.6,0.8-1.6,3.9c-13.8,20-34.5,34.7-58,41.2c-14.6,4.1-32.3,4.7-47.3,1.7c-32-6.5-58.8-27.1-73-56.2c-2.9-5.9-5.3-11.9-4.9-12.2c0.1,0,3.8-1.8,8.2-4C49.3,154.3,52.8,153.5,56.6,155.3z"/></g></g></g>
</svg>