<?xml version="1.0" encoding="utf-8"?>
<!-- Svg Vector Icons : http://www.onlinewebfonts.com/icon -->
<!DOCTYPE svg PUBLIC "-//W3C//DTD SVG 1.1//EN" "http://www.w3.org/Graphics/SVG/1.1/DTD/svg11.dtd">
<svg version="1.1" xmlns="http://www.w3.org/2000/svg" xmlns:xlink="http://www.w3.org/1999/xlink" x="0px" y="0px" viewBox="0 0 256 256" enable-background="new 0 0 256 256" xml:space="preserve">
<metadata> Svg Vector Icons : http://www.onlinewebfonts.com/icon </metadata>
<g><g><g><path fill="#000000" d="M84.3,6.7c-0.9,0.5-3.7,3.1-6.1,5.7C71,20.7,67.1,26.7,65.9,32.1c-1.1,4.8,1.7,11.4,8,18.8l3.1,3.6l-4,4.2C64.1,68.1,63.5,74,70.7,85C74,90.1,82.1,99.5,84,100.5c2.1,1.1,5.5,1,7.2-0.3c0.8-0.6,1.8-1.9,2.3-2.9c1.5-3.1,0.9-5.3-2.7-9.3c-7.5-8.2-11.4-13.9-10.9-15.7c0.4-1.4,6.3-7.6,10.2-10.5c1.9-1.4,3.1-2.7,3.6-4.2c1.4-3.5,0.8-4.9-4.4-10.4c-5.6-6.1-9.6-11.2-9.6-12.6c0-1.9,4.8-8.4,10.7-14.7c4.3-4.5,5-7.9,2.4-11.2c-1.2-1.5-3.8-2.7-5.6-2.7C86.5,5.9,85.3,6.3,84.3,6.7z"/><path fill="#000000" d="M124.5,6.8c-4.2,2.3-15.1,16.4-17.4,22.3c-2.3,6.2-0.4,12.5,6.5,21l3.5,4.4l-3.8,4c-2.4,2.6-4.4,5.3-5.6,7.7c-1.6,3.3-1.8,4-1.6,6.9c0.4,5.9,5.5,14.4,14,23.4c4.3,4.5,6.3,5.4,9.3,4.5c2-0.6,4.3-3,4.8-4.9c0.7-2.7-0.3-4.6-4.9-10c-5.1-5.9-9.6-12.1-9.6-13.3c0-1.1,6.4-7.8,10.5-11c2.2-1.7,3.4-3.1,3.8-4.3c1.1-3.4,0.5-4.9-4.5-10.3c-5.6-6.1-9.1-10.5-9.5-12.2c-0.4-1.6,2.8-6.4,8.4-12.7c5.6-6.4,5.8-6.5,6-8.9C135,8.2,129.1,4.3,124.5,6.8z"/><path fill="#000000" d="M168.3,6.8c-4.1,2.2-15.2,16.3-17.4,22.3c-2.3,6.2-0.4,12.5,6.5,21l3.5,4.4l-3.8,4c-2.4,2.6-4.4,5.3-5.6,7.7c-1.6,3.3-1.8,4-1.6,6.9c0.4,6,5.9,15,14.4,23.6c3.2,3.3,4.5,4.2,6,4.5c5,0.9,9.8-5.2,7.4-9.6c-0.3-0.6-2.5-3.3-4.8-6c-4.8-5.4-9.3-11.7-9.3-12.9c0-1.1,6.4-7.8,10.5-11c2.2-1.7,3.4-3.1,3.8-4.3c1.1-3.4,0.5-4.9-4.5-10.3c-5.6-6.1-9.1-10.5-9.5-12.2c-0.4-1.6,2.8-6.4,8.4-12.7c6-6.8,6.3-7.2,6-10C177.8,7.3,172.7,4.5,168.3,6.8z"/><path fill="#000000" d="M13.7,124.9c-3.4,1.7-4,3.4-3.6,10.2c1,17.6,9.6,39.2,23.3,58.5c10.9,15.3,27.2,30.7,42,39.7l4.6,2.8l-3.9,0.3c-4.3,0.3-6.1,1.2-7.4,3.7c-1.1,2.1-0.7,5.6,0.9,7.4c2.6,2.8,0.5,2.7,54.5,2.7c46.6,0,50.1,0,51.8-0.9c2.1-1.1,4.1-3.8,4.1-5.8c0-2.2-1.5-5-3.2-6l-1.5-0.9l4.9-3c16-9.6,34.1-27.2,45.2-44c12.2-18.4,19.6-38.2,20.5-54.5c0.4-6.6-0.3-8.5-3.6-10.1c-2.1-1-2.4-1-114.3-1C16.2,123.9,15.8,123.9,13.7,124.9z"/></g></g></g>
</svg>