<?xml version="1.0" encoding="utf-8"?>
<!-- Svg Vector Icons : http://www.onlinewebfonts.com/icon -->
<!DOCTYPE svg PUBLIC "-//W3C//DTD SVG 1.1//EN" "http://www.w3.org/Graphics/SVG/1.1/DTD/svg11.dtd">
<svg version="1.1" xmlns="http://www.w3.org/2000/svg" xmlns:xlink="http://www.w3.org/1999/xlink" x="0px" y="0px" viewBox="0 0 256 256" enable-background="new 0 0 256 256" xml:space="preserve">
<metadata> Svg Vector Icons : http://www.onlinewebfonts.com/icon </metadata>
<g><g><g id="Imagenes"></g><g id="Layer_2"><path fill="#000000" d="M170.7,87.1c1.9,2.7,3.8,6.5,4,11.5c3.6,1.2,7.9,3.3,12.3,7.2c2.8,2.5,4.4,5.6,5,9c1-0.1,2-0.2,2.9-0.2c7,0,12.8,3.5,15.8,9.6c4.1,8.1,1.5,16.1-3.1,22.4c3.2,2.4,6.2,5.7,8.5,10.2c7.5,15.1,5.7,18.9-7.1,31.6l-0.4,0.4c4.2,5.2,11.2,5.5,21.5,5.5c2,0,7.2-0.6,11.2-5.8c3.9-5.2,7.3-15.9,1-37.7C235.1,124.5,206.4,96.8,170.7,87.1z"/><path fill="#000000" d="M208.6,160.6c-4.7-9.3-13.3-10.6-15.7-10.8c-0.4,0-0.6,0-0.6,0l0,0c0,0,0.2-0.1,0.5-0.3c2.5-1.8,15.3-11.5,10.4-21.4c-1.8-3.7-4.9-4.9-8.2-4.9c-5.5,0-11.6,3.5-13.2,4.4c-0.3,0.2-0.4,0.3-0.4,0.3s0.1-0.2,0.3-0.6c1-2.3,4.4-11-0.3-15.1c-6.2-5.4-11.5-6.3-14.3-6.3c0,0-0.1,0-0.2,0c-1.2,0-1.9,0.2-1.9,0.2c0.2-0.6,0.3-1.2,0.5-1.8c3.7-14.9-11.6-20-16.8-20c-2.2,0-5.3,0.4-8.1,1c-3.3,0.6-6.4,1.3-7.6,1.6c-0.3,0.1-0.6,0.1-0.6,0.1s0-0.1,0-0.3c0-0.8-0.3-3.4-1.4-6.7c-0.4-1.3-1-2.6-1.8-4c-2.8-5.2-8.2-10.9-18.6-13.5c-2.4-0.6-4.8-0.9-7-0.9c-18.1,0-31,17.2-31,17.2c-6.3-3.8-11.7-5.2-16.3-5.2c-15.3,0-21.8,16.1-21.8,16.1c-2-0.5-3.7-0.7-5.2-0.7c-14.7,0-5.7,22.5-5.7,22.5c-25.4,10.2-8.1,25-5.7,27C30.4,114.9,53.1,94.1,94.3,93c0.5,0,1.3-0.1,2.1-0.2c1.3-0.1,2.7-0.2,3.4-0.2c48.1,0,79.3,49.7,94.3,81.5c0.5,1,0.9,2,1.4,3c0.6,1.3,1.5,2.7,2.5,4l3.2,0.7l2,0.5c0.7-0.7,1.4-1.4,2-2C214.1,171.4,213.7,170.7,208.6,160.6z"/><path fill="#000000" d="M189.3,183.4c-0.6-0.9-1.1-1.9-1.5-2.8c-0.3-0.7-0.7-1.4-1-2.2c-14-29.9-43.1-77.3-86.9-77.3c-0.6,0-1.6,0.1-2.6,0.2c-1.1,0.1-2.1,0.2-2.7,0.2c-35.8,1-56.2,18.6-67.8,39.2c-0.7,1.3-1.4,2.6-2.1,3.9c-0.7,1.3-1.3,2.6-1.9,4c-7.1,15.9-9.8,32.5-10.7,44.1h185c-1.2-1.2-2.5-2.5-3.6-3.9C191.8,187.1,190.4,185.3,189.3,183.4z M99.8,136c0-4.5,3.7-8.2,8.2-8.2s8.2,3.7,8.2,8.2s-3.7,8.2-8.2,8.2S99.8,140.5,99.8,136z M127,168.8c0,1.5-0.5,2.9-1.2,4.1c-1.4,2.4-4,3.9-7,3.9c-4.3,0-7.7-3.3-8.1-7.5c0-0.2-0.1-0.5-0.1-0.7c0-1.3,0.3-2.5,0.8-3.5c0.7-1.5,2-2.8,3.4-3.6c1.2-0.6,2.5-1,3.9-1c2.8,0,5.2,1.4,6.7,3.5C126.5,165.4,127,167,127,168.8C127,168.7,127,168.8,127,168.8z M135.2,155.1c-4.5,0-8.2-3.7-8.2-8.2c0-4.5,3.7-8.2,8.2-8.2c4.5,0,8.2,3.7,8.2,8.2C143.4,151.4,139.7,155.1,135.2,155.1z"/></g></g></g>
</svg>